%TF.GenerationSoftware,KiCad,Pcbnew,9.0.2*%
%TF.CreationDate,2025-06-01T15:12:09-05:00*%
%TF.ProjectId,first_pcb_project,66697273-745f-4706-9362-5f70726f6a65,rev?*%
%TF.SameCoordinates,Original*%
%TF.FileFunction,Copper,L1,Top*%
%TF.FilePolarity,Positive*%
%FSLAX46Y46*%
G04 Gerber Fmt 4.6, Leading zero omitted, Abs format (unit mm)*
G04 Created by KiCad (PCBNEW 9.0.2) date 2025-06-01 15:12:09*
%MOMM*%
%LPD*%
G01*
G04 APERTURE LIST*
%TA.AperFunction,ComponentPad*%
%ADD10R,1.700000X1.700000*%
%TD*%
%TA.AperFunction,ComponentPad*%
%ADD11C,1.700000*%
%TD*%
%TA.AperFunction,ComponentPad*%
%ADD12R,1.800000X1.800000*%
%TD*%
%TA.AperFunction,ComponentPad*%
%ADD13C,1.800000*%
%TD*%
%TA.AperFunction,ComponentPad*%
%ADD14C,2.000000*%
%TD*%
%TA.AperFunction,ComponentPad*%
%ADD15C,1.600000*%
%TD*%
%TA.AperFunction,Conductor*%
%ADD16C,0.200000*%
%TD*%
G04 APERTURE END LIST*
D10*
%TO.P,M1,1,+*%
%TO.N,Net-(M1-+)*%
X86958746Y-122316612D03*
D11*
%TO.P,M1,2,-*%
%TO.N,Net-(BT1--)*%
X86958746Y-124856612D03*
%TD*%
D12*
%TO.P,D2,1,K*%
%TO.N,Net-(D2-K)*%
X112683746Y-94591612D03*
D13*
%TO.P,D2,2,A*%
%TO.N,Net-(D1-A)*%
X115223746Y-94591612D03*
%TD*%
D12*
%TO.P,D1,1,K*%
%TO.N,Net-(D1-K)*%
X54183746Y-95091612D03*
D13*
%TO.P,D1,2,A*%
%TO.N,Net-(D1-A)*%
X56723746Y-95091612D03*
%TD*%
D14*
%TO.P,SW1,1,1*%
%TO.N,Net-(BT1-+)*%
X56458746Y-113591612D03*
X62958746Y-113591612D03*
%TO.P,SW1,2,2*%
%TO.N,Net-(D1-A)*%
X56458746Y-118091612D03*
X62958746Y-118091612D03*
%TD*%
%TO.P,SW2,1,1*%
%TO.N,Net-(BT1-+)*%
X108458746Y-112341612D03*
X114958746Y-112341612D03*
%TO.P,SW2,2,2*%
%TO.N,Net-(M1-+)*%
X108458746Y-116841612D03*
X114958746Y-116841612D03*
%TD*%
D15*
%TO.P,R2,1*%
%TO.N,Net-(D1-K)*%
X82838746Y-83591612D03*
%TO.P,R2,2*%
%TO.N,Net-(BT1--)*%
X90458746Y-83591612D03*
%TD*%
%TO.P,R1,1*%
%TO.N,Net-(D2-K)*%
X82838746Y-79591612D03*
%TO.P,R1,2*%
%TO.N,Net-(BT1--)*%
X90458746Y-79591612D03*
%TD*%
D16*
%TO.N,Net-(M1-+)*%
X108458746Y-116841612D02*
X108158388Y-116841612D01*
X102683388Y-122316612D02*
X86958746Y-122316612D01*
X108158388Y-116841612D02*
X102683388Y-122316612D01*
X114958746Y-116841612D02*
X108458746Y-116841612D01*
%TO.N,Net-(D1-A)*%
X115223746Y-94591612D02*
X107796539Y-102018819D01*
X107796539Y-102018819D02*
X63650953Y-102018819D01*
%TO.N,Net-(M1-+)*%
X114958746Y-116841612D02*
X114958746Y-117091612D01*
%TO.N,Net-(D1-A)*%
X56458746Y-118091612D02*
X63650953Y-110899405D01*
X63650953Y-102018819D02*
X56723746Y-95091612D01*
X63650953Y-110899405D02*
X63650953Y-102018819D01*
%TO.N,Net-(D1-K)*%
X82838746Y-83591612D02*
X65683746Y-83591612D01*
X65683746Y-83591612D02*
X54183746Y-95091612D01*
%TO.N,Net-(D2-K)*%
X82838746Y-79591612D02*
X97838746Y-94591612D01*
X97838746Y-94591612D02*
X112683746Y-94591612D01*
%TO.N,Net-(BT1-+)*%
X114958746Y-112341612D02*
X108458746Y-112341612D01*
%TD*%
M02*
