%TF.GenerationSoftware,KiCad,Pcbnew,9.0.2*%
%TF.CreationDate,2025-05-31T15:25:19-05:00*%
%TF.ProjectId,first_pcb_project,66697273-745f-4706-9362-5f70726f6a65,rev?*%
%TF.SameCoordinates,Original*%
%TF.FileFunction,Copper,L2,Bot*%
%TF.FilePolarity,Positive*%
%FSLAX46Y46*%
G04 Gerber Fmt 4.6, Leading zero omitted, Abs format (unit mm)*
G04 Created by KiCad (PCBNEW 9.0.2) date 2025-05-31 15:25:19*
%MOMM*%
%LPD*%
G01*
G04 APERTURE LIST*
%TA.AperFunction,ComponentPad*%
%ADD10C,1.800000*%
%TD*%
%TA.AperFunction,ComponentPad*%
%ADD11R,1.800000X1.800000*%
%TD*%
%TA.AperFunction,ComponentPad*%
%ADD12C,1.600000*%
%TD*%
%TA.AperFunction,SMDPad,CuDef*%
%ADD13R,1.270000X5.080000*%
%TD*%
%TA.AperFunction,SMDPad,CuDef*%
%ADD14C,17.800000*%
%TD*%
%TA.AperFunction,ComponentPad*%
%ADD15C,2.000000*%
%TD*%
%TA.AperFunction,Conductor*%
%ADD16C,0.200000*%
%TD*%
G04 APERTURE END LIST*
D10*
%TO.P,D1,2,A*%
%TO.N,Net-(D1-A)*%
X96500000Y-72000000D03*
D11*
%TO.P,D1,1,K*%
%TO.N,Net-(D1-K)*%
X93960000Y-72000000D03*
%TD*%
D12*
%TO.P,R2,1*%
%TO.N,Net-(D1-K)*%
X120190000Y-57000000D03*
%TO.P,R2,2*%
%TO.N,Net-(BT1--)*%
X127810000Y-57000000D03*
%TD*%
%TO.P,R1,1*%
%TO.N,Net-(D2-K)*%
X119880000Y-53000000D03*
%TO.P,R1,2*%
%TO.N,Net-(BT1--)*%
X127500000Y-53000000D03*
%TD*%
D11*
%TO.P,D2,1,K*%
%TO.N,Net-(D2-K)*%
X151225000Y-72500000D03*
D10*
%TO.P,D2,2,A*%
%TO.N,Net-(D1-A)*%
X153765000Y-72500000D03*
%TD*%
D13*
%TO.P,BT1,1,+*%
%TO.N,Net-(BT1-+)*%
X134985000Y-71000000D03*
X113015000Y-71000000D03*
D14*
%TO.P,BT1,2,-*%
%TO.N,Net-(BT1--)*%
X124000000Y-71000000D03*
%TD*%
D15*
%TO.P,SW1,1,1*%
%TO.N,Net-(BT1-+)*%
X141000000Y-53000000D03*
X147500000Y-53000000D03*
%TO.P,SW1,2,2*%
%TO.N,Net-(D1-A)*%
X141000000Y-57500000D03*
X147500000Y-57500000D03*
%TD*%
D16*
%TO.N,Net-(BT1-+)*%
X134985000Y-73500000D02*
X134985000Y-75527179D01*
X134985000Y-75527179D02*
X127811179Y-82701000D01*
X127811179Y-82701000D02*
X119476000Y-82701000D01*
X119476000Y-82701000D02*
X113015000Y-76240000D01*
X113015000Y-76240000D02*
X113015000Y-73500000D01*
X134985000Y-73500000D02*
X134985000Y-64015000D01*
%TO.N,Net-(BT1--)*%
X124600000Y-67958075D02*
X124541925Y-67958075D01*
%TO.N,Net-(BT1-+)*%
X127811179Y-80201000D02*
X134985000Y-73027179D01*
X134985000Y-73027179D02*
X134985000Y-71000000D01*
X120188821Y-80201000D02*
X127811179Y-80201000D01*
%TO.N,Net-(BT1--)*%
X124000000Y-71000000D02*
X127810000Y-67190000D01*
X127810000Y-67190000D02*
X127810000Y-57000000D01*
%TO.N,Net-(BT1-+)*%
X134985000Y-59015000D02*
X141000000Y-53000000D01*
X113015000Y-71000000D02*
X113015000Y-73027179D01*
X134985000Y-71000000D02*
X134985000Y-59015000D01*
X113015000Y-73027179D02*
X120188821Y-80201000D01*
%TD*%
M02*
