%TF.GenerationSoftware,KiCad,Pcbnew,9.0.2*%
%TF.CreationDate,2025-05-31T15:25:19-05:00*%
%TF.ProjectId,first_pcb_project,66697273-745f-4706-9362-5f70726f6a65,rev?*%
%TF.SameCoordinates,Original*%
%TF.FileFunction,Copper,L1,Top*%
%TF.FilePolarity,Positive*%
%FSLAX46Y46*%
G04 Gerber Fmt 4.6, Leading zero omitted, Abs format (unit mm)*
G04 Created by KiCad (PCBNEW 9.0.2) date 2025-05-31 15:25:19*
%MOMM*%
%LPD*%
G01*
G04 APERTURE LIST*
%TA.AperFunction,ComponentPad*%
%ADD10C,1.800000*%
%TD*%
%TA.AperFunction,ComponentPad*%
%ADD11R,1.800000X1.800000*%
%TD*%
%TA.AperFunction,ComponentPad*%
%ADD12C,1.600000*%
%TD*%
%TA.AperFunction,ComponentPad*%
%ADD13C,2.000000*%
%TD*%
%TA.AperFunction,Conductor*%
%ADD14C,0.200000*%
%TD*%
G04 APERTURE END LIST*
D10*
%TO.P,D1,2,A*%
%TO.N,Net-(D1-A)*%
X96500000Y-72000000D03*
D11*
%TO.P,D1,1,K*%
%TO.N,Net-(D1-K)*%
X93960000Y-72000000D03*
%TD*%
D12*
%TO.P,R2,1*%
%TO.N,Net-(D1-K)*%
X120190000Y-57000000D03*
%TO.P,R2,2*%
%TO.N,Net-(BT1--)*%
X127810000Y-57000000D03*
%TD*%
%TO.P,R1,1*%
%TO.N,Net-(D2-K)*%
X119880000Y-53000000D03*
%TO.P,R1,2*%
%TO.N,Net-(BT1--)*%
X127500000Y-53000000D03*
%TD*%
D11*
%TO.P,D2,1,K*%
%TO.N,Net-(D2-K)*%
X151225000Y-72500000D03*
D10*
%TO.P,D2,2,A*%
%TO.N,Net-(D1-A)*%
X153765000Y-72500000D03*
%TD*%
D13*
%TO.P,SW1,1,1*%
%TO.N,Net-(BT1-+)*%
X141000000Y-53000000D03*
X147500000Y-53000000D03*
%TO.P,SW1,2,2*%
%TO.N,Net-(D1-A)*%
X141000000Y-57500000D03*
X147500000Y-57500000D03*
%TD*%
D14*
%TO.N,Net-(BT1-+)*%
X141000000Y-53000000D02*
X147500000Y-53000000D01*
%TO.N,Net-(D1-K)*%
X95161000Y-73201000D02*
X103989000Y-73201000D01*
X93960000Y-72000000D02*
X95161000Y-73201000D01*
X103989000Y-73201000D02*
X120190000Y-57000000D01*
%TO.N,Net-(D1-A)*%
X141000000Y-57500000D02*
X147500000Y-57500000D01*
X116601000Y-51899000D02*
X96500000Y-72000000D01*
X153765000Y-63765000D02*
X147500000Y-57500000D01*
X135399000Y-51899000D02*
X116601000Y-51899000D01*
X141000000Y-57500000D02*
X135399000Y-51899000D01*
X153765000Y-72500000D02*
X153765000Y-63765000D01*
%TO.N,Net-(BT1--)*%
X127810000Y-53310000D02*
X127500000Y-53000000D01*
%TO.N,Net-(D2-K)*%
X119880000Y-54880000D02*
X119880000Y-53000000D01*
%TO.N,Net-(BT1--)*%
X127810000Y-57000000D02*
X127810000Y-53310000D01*
%TO.N,Net-(D2-K)*%
X137500000Y-72500000D02*
X119880000Y-54880000D01*
X151225000Y-72500000D02*
X137500000Y-72500000D01*
%TD*%
M02*
